<svg xmlns:xlink="http://www.w3.org/1999/xlink" width="25" height="25" viewBox="0 0 25 25" fill="none" xmlns="http://www.w3.org/2000/svg">
							<path d="M11.5003 21.3076H9.07429C8.35769 21.3076 7.66477 21.051 7.12092 20.5844C6.57707 20.1178 6.21822 19.4719 6.10929 18.7636L4.85429 10.6116C4.81046 10.3266 4.82878 10.0355 4.908 9.7582C4.98722 9.48093 5.12545 9.22406 5.31324 9.00522C5.50102 8.78638 5.73391 8.61073 5.99594 8.49032C6.25796 8.36991 6.54293 8.30758 6.83129 8.30762H18.1703C18.4587 8.30758 18.7436 8.36991 19.0057 8.49032C19.2677 8.61073 19.5006 8.78638 19.6883 9.00522C19.8761 9.22406 20.0144 9.48093 20.0936 9.7582C20.1728 10.0355 20.1911 10.3266 20.1473 10.6116L20.0383 11.3186" stroke="#F8643C" stroke-width="1.5px" stroke-linecap="round" stroke-linejoin="round" fill="none"></path>
							<path d="M9.5 11.3076V6.30762C9.5 5.51197 9.81607 4.74891 10.3787 4.1863C10.9413 3.62369 11.7044 3.30762 12.5 3.30762C13.2956 3.30762 14.0587 3.62369 14.6213 4.1863C15.1839 4.74891 15.5 5.51197 15.5 6.30762V11.3076" stroke="#F8643C" stroke-width="1.5px" stroke-linecap="round" stroke-linejoin="round" fill="none"></path>
							<path d="M20.621 20.4293C21.0406 20.0097 21.3265 19.4752 21.4423 18.8932C21.5581 18.3113 21.4988 17.708 21.2717 17.1598C21.0447 16.6115 20.6602 16.143 20.1668 15.8133C19.6734 15.4836 19.0934 15.3076 18.5 15.3076C17.9066 15.3076 17.3266 15.4836 16.8332 15.8133C16.3398 16.143 15.9553 16.6115 15.7283 17.1598C15.5012 17.708 15.4419 18.3113 15.5577 18.8932C15.6735 19.4752 15.9594 20.0097 16.379 20.4293C16.797 20.8483 17.504 21.4743 18.5 22.3083C19.551 21.4183 20.259 20.7923 20.621 20.4293Z" stroke="#F8643C" stroke-width="1.5px" stroke-linecap="round" stroke-linejoin="round" fill="none"></path>
							<path d="M18.5 18.3083V18.3183" stroke="#F8643C" stroke-width="1.5px" stroke-linecap="round" stroke-linejoin="round" fill="none"></path>
							</svg>