<svg xmlns:xlink="http://www.w3.org/1999/xlink" width="21" height="15" viewBox="0 0 21 15" fill="none" xmlns="http://www.w3.org/2000/svg">
							<path d="M0.333496 1.87433C0.333496 1.37722 0.53104 0.900482 0.882671 0.548977C1.2343 0.197473 1.71122 0 2.2085 0H13.4585C13.9558 0 14.4327 0.197473 14.7843 0.548977C15.136 0.900482 15.3335 1.37722 15.3335 1.87433V3.74865H16.6085C16.8894 3.7489 17.1667 3.81225 17.4198 3.93402C17.673 4.05578 17.8955 4.23286 18.071 4.45215L19.9222 6.76382C20.1886 7.09643 20.3337 7.50983 20.3335 7.9359V10.6212C20.3335 11.1183 20.136 11.595 19.7843 11.9465C19.4327 12.298 18.9558 12.4955 18.4585 12.4955H17.8335C17.8335 13.1583 17.5701 13.794 17.1013 14.2626C16.6324 14.7313 15.9965 14.9946 15.3335 14.9946C14.6705 14.9946 14.0346 14.7313 13.5657 14.2626C13.0969 13.794 12.8335 13.1583 12.8335 12.4955H6.5835C6.58422 12.8286 6.51831 13.1585 6.38965 13.4658C6.26099 13.7731 6.07218 14.0515 5.83431 14.2848C5.59644 14.5181 5.31431 14.7015 5.00452 14.8242C4.69473 14.9469 4.36352 15.0065 4.03036 14.9994C3.69721 14.9924 3.36883 14.9188 3.06453 14.783C2.76024 14.6472 2.48617 14.452 2.25843 14.2088C2.0307 13.9656 1.85389 13.6794 1.73841 13.3669C1.62294 13.0545 1.57111 12.7221 1.586 12.3893C1.21981 12.2605 0.90265 12.0212 0.678301 11.7045C0.453953 11.3878 0.333475 11.0092 0.333496 10.6212L0.333496 1.87433ZM1.951 11.191C2.177 10.8211 2.49539 10.5164 2.87487 10.3067C3.25435 10.0971 3.68187 9.98981 4.11541 9.99535C4.54894 10.0009 4.97357 10.1191 5.34756 10.3384C5.72156 10.5576 6.03204 10.8704 6.2485 11.246H13.1685C13.3884 10.8664 13.7038 10.5511 14.0835 10.3313V1.87433C14.0835 1.70863 14.0176 1.54971 13.9004 1.43254C13.7832 1.31538 13.6243 1.24955 13.4585 1.24955H2.2085C2.04274 1.24955 1.88376 1.31538 1.76655 1.43254C1.64934 1.54971 1.5835 1.70863 1.5835 1.87433V10.6212C1.5834 10.7414 1.61802 10.8592 1.68321 10.9602C1.7484 11.0613 1.84138 11.1414 1.951 11.191ZM15.3335 9.9964C15.7723 9.99642 16.2034 10.1119 16.5835 10.3312C16.9635 10.5506 17.2791 10.8661 17.4985 11.246H18.4585C18.6243 11.246 18.7832 11.1801 18.9004 11.063C19.0176 10.9458 19.0835 10.7869 19.0835 10.6212V7.93465C19.0832 7.79286 19.0348 7.65538 18.946 7.54479L17.096 5.23312C17.0375 5.15994 16.9634 5.10084 16.879 5.06018C16.7946 5.01952 16.7022 4.99834 16.6085 4.9982H15.3335V9.9964ZM4.0835 11.246C3.75198 11.246 3.43403 11.3776 3.19961 11.6119C2.96519 11.8463 2.8335 12.1641 2.8335 12.4955C2.8335 12.8269 2.96519 13.1447 3.19961 13.3791C3.43403 13.6134 3.75198 13.7451 4.0835 13.7451C4.41502 13.7451 4.73296 13.6134 4.96738 13.3791C5.2018 13.1447 5.3335 12.8269 5.3335 12.4955C5.3335 12.1641 5.2018 11.8463 4.96738 11.6119C4.73296 11.3776 4.41502 11.246 4.0835 11.246ZM15.3335 11.246C15.002 11.246 14.684 11.3776 14.4496 11.6119C14.2152 11.8463 14.0835 12.1641 14.0835 12.4955C14.0835 12.8269 14.2152 13.1447 14.4496 13.3791C14.684 13.6134 15.002 13.7451 15.3335 13.7451C15.665 13.7451 15.983 13.6134 16.2174 13.3791C16.4518 13.1447 16.5835 12.8269 16.5835 12.4955C16.5835 12.1641 16.4518 11.8463 16.2174 11.6119C15.983 11.3776 15.665 11.246 15.3335 11.246Z" fill="#F8643C"></path>
						</svg>